# File created by Blade
# Date/Time:  Wed Jan 21 16:20:01 2015
# Frame Rate: 120.000 fps
#------------------------------------------------------
:FULLY-SPECIFIED
:DEGREES
1082
root 19.119968 35.525509 -22.072552 -176.120118 0.241964 -176.528369
Spine -14.723218 -1.359230 4.294837
Head 12.031458 0.270134 -0.465255
LeftShoulder -15.631616 -32.136555 19.380790
LeftArm 4.663218 3.629661 -8.209722
LeftForeArm 10.537968 -0.000000 -2.805821
LeftHand -9.915340 -0.000000 -4.360257
LeftHandThumb1 -26.253704 0.000000 33.147579
RightShoulder -12.988137 -3.881552 -9.923844
RightArm 7.417401 38.537757 12.343568
RightForeArm -35.621076 -0.000000 4.378518
RightHand -7.411445 -0.000000 7.826229
RightHandThumb1 -24.326973 -0.000000 -32.862282
LeftUpLeg 6.351374 2.690122 6.621284
LeftLeg -12.690226 -0.000000 0.000000
LeftFoot 0.464739 23.087588 6.994935
LeftToeBase -143.772546 -0.000000 0.000000
RightUpLeg 2.822839 -11.020682 2.439950
RightLeg -2.867866 -0.000000 0.000000
RightFoot -20.168824 -22.885086 18.132631
RightToeBase 22.259225 -0.000000 -0.000000
1083
root 19.123929 35.525112 -22.075358 -176.110019 0.208147 -176.530193
Spine -14.726979 -1.351315 4.299391
Head 12.038548 0.257984 -0.495761
LeftShoulder -15.602312 -32.137207 19.344541
LeftArm 4.671930 3.626050 -8.182191
LeftForeArm 10.685580 -0.000000 -2.828933
LeftHand -9.926962 -0.000000 -4.298278
LeftHandThumb1 -26.253704 0.000000 33.147579
RightShoulder -13.006621 -3.907039 -9.936169
RightArm 7.495360 38.500607 12.417966
RightForeArm -35.563668 -0.000000 4.468047
RightHand -7.900662 -0.000000 7.871888
RightHandThumb1 -24.326973 -0.000000 -32.862282
LeftUpLeg 6.329800 2.720265 6.628275
LeftLeg -12.675335 -0.000000 0.000000
LeftFoot 0.441151 23.028731 6.995016
LeftToeBase -143.758340 -0.000000 0.000000
RightUpLeg 2.833814 -11.027517 2.445683
RightLeg -2.894690 -0.000000 0.000000
RightFoot -20.170654 -22.890536 18.152360
RightToeBase 22.269196 -0.000000 -0.000000
1084
root 19.127316 35.524226 -22.078426 -176.112053 0.162755 -176.536311
Spine -14.717431 -1.395206 4.304587
Head 12.036824 0.267798 -0.510138
LeftShoulder -15.626743 -32.125875 19.367086
LeftArm 4.680413 3.605841 -8.200183
LeftForeArm 10.727021 0.000000 -2.846210
LeftHand -9.929630 -0.000000 -4.266739
LeftHandThumb1 -26.253704 0.000000 33.147579
RightShoulder -12.981748 -3.964365 -9.926873
RightArm 7.565752 38.529495 12.460361
RightForeArm -35.568573 -0.000000 4.476152
RightHand -7.861768 -0.000000 7.873425
RightHandThumb1 -24.326973 -0.000000 -32.862282
LeftUpLeg 6.332248 2.686377 6.631146
LeftLeg -12.689189 -0.000000 0.000000
LeftFoot 0.452147 23.023412 6.988917
LeftToeBase -143.780841 -0.000000 0.000000
RightUpLeg 2.853522 -11.065622 2.445222
RightLeg -2.908778 -0.000000 0.000000
RightFoot -20.179657 -22.904298 18.139705
RightToeBase 22.257393 -0.000000 -0.000000
1085
root 19.130673 35.523526 -22.080621 -176.103089 0.121871 -176.545470
Spine -14.716978 -1.405362 4.310223
Head 12.027134 0.272957 -0.551584
LeftShoulder -15.617189 -32.123972 19.349695
LeftArm 4.694977 3.624181 -8.199390
LeftForeArm 10.600504 -0.000000 -2.847618
LeftHand -9.903325 -0.000000 -4.366156
LeftHandThumb1 -26.253704 0.000000 33.147579
RightShoulder -12.945902 -3.960126 -9.915219
RightArm 7.535445 38.564543 12.402285
RightForeArm -35.569433 0.000000 4.438886
RightHand -7.724600 -0.000000 7.933487
RightHandThumb1 -24.326973 -0.000000 -32.862282
LeftUpLeg 6.321686 2.624941 6.631454
LeftLeg -12.693263 -0.000000 0.000000
LeftFoot 0.452516 23.033151 6.988429
LeftToeBase -143.770879 -0.000000 0.000000
RightUpLeg 2.868649 -11.052718 2.446465
RightLeg -2.953262 -0.000000 0.000000
RightFoot -20.183320 -22.973591 18.148692
RightToeBase 22.237672 -0.000000 -0.000000
1086
root 19.135446 35.522797 -22.085015 -176.095089 0.067080 -176.540764
Spine -14.728811 -1.436017 4.324269
Head 12.038876 0.276656 -0.581934
LeftShoulder -15.603633 -32.113582 19.346331
LeftArm 4.700181 3.642964 -8.198773
LeftForeArm 10.591091 -0.000000 -2.863321
LeftHand -9.898341 -0.000000 -4.364372
LeftHandThumb1 -26.253704 0.000000 33.147579
RightShoulder -12.903987 -3.988458 -9.896627
RightArm 7.528591 38.561465 12.373540
RightForeArm -35.514444 0.000000 4.473151
RightHand -7.830782 -0.000000 8.007723
RightHandThumb1 -24.326973 -0.000000 -32.862282
LeftUpLeg 6.310893 2.639204 6.646427
LeftLeg -12.705674 -0.000000 0.000000
LeftFoot 0.456980 22.989291 6.993066
LeftToeBase -143.795226 -0.000000 0.000000
RightUpLeg 2.894453 -11.125138 2.455450
RightLeg -2.980710 -0.000000 0.000000
RightFoot -20.175541 -22.908027 18.153277
RightToeBase 22.226513 -0.000000 -0.000000
1087
root 19.138792 35.522005 -22.087684 -176.082584 0.013462 -176.546543
Spine -14.731304 -1.463344 4.329903
Head 12.031939 0.287672 -0.603383
LeftShoulder -15.596920 -32.113214 19.349178
LeftArm 4.690522 3.657775 -8.199987
LeftForeArm 10.585627 0.000000 -2.855235
LeftHand -9.865361 -0.000000 -4.390857
LeftHandThumb1 -26.253704 0.000000 33.147579
RightShoulder -12.887717 -3.979977 -9.894278
RightArm 7.544754 38.593585 12.375036
RightForeArm -35.538834 -0.000000 4.473473
RightHand -7.728682 0.000000 8.100264
RightHandThumb1 -24.326973 -0.000000 -32.862282
LeftUpLeg 6.289382 2.566960 6.653265
LeftLeg -12.698247 -0.000000 0.000000
LeftFoot 0.454406 22.986758 7.013388
LeftToeBase -143.787003 -0.000000 0.000000
RightUpLeg 2.907937 -11.162004 2.457341
RightLeg -3.010884 -0.000000 0.000000
RightFoot -20.174928 -22.914495 18.165987
RightToeBase 22.182334 -0.000000 -0.000000
1088
root 19.142693 35.521109 -22.091632 -176.079065 -0.042538 -176.551371
Spine -14.724959 -1.486058 4.336467
Head 12.015719 0.303520 -0.625826
LeftShoulder -15.581063 -32.107158 19.331467
LeftArm 4.697647 3.667047 -8.187103
LeftForeArm 10.559529 -0.000000 -2.843122
LeftHand -9.877175 -0.000000 -4.402373
LeftHandThumb1 -26.253704 0.000000 33.147579
RightShoulder -12.890862 -3.986647 -9.903037
RightArm 7.570619 38.567357 12.403772
RightForeArm -35.506340 -0.000000 4.520653
RightHand -7.797229 -0.000000 8.154483
RightHandThumb1 -24.326973 -0.000000 -32.862282
LeftUpLeg 6.280776 2.589069 6.654077
LeftLeg -12.706816 -0.000000 0.000000
LeftFoot 0.439215 22.947056 6.996953
LeftToeBase -143.797207 -0.000000 0.000000
RightUpLeg 2.934320 -11.174359 2.465476
RightLeg -3.058012 -0.000000 0.000000
RightFoot -20.177601 -22.980347 18.237641
RightToeBase 22.050738 -0.000000 -0.000000
